<?xml version="1.0" standalone="no"?>
<!DOCTYPE svg PUBLIC "-//W3C//DTD SVG 20010904//EN"
 "http://www.w3.org/TR/2001/REC-SVG-20010904/DTD/svg10.dtd">
<svg version="1.0" xmlns="http://www.w3.org/2000/svg"
 width="160.000000pt" height="160.000000pt" viewBox="0 0 160.000000 160.000000"
 preserveAspectRatio="xMidYMid meet">
<metadata>
Created by potrace 1.14, written by Peter Selinger 2001-2017
</metadata>
<g transform="translate(0.000000,160.000000) scale(0.100000,-0.100000)"
fill="#000000" stroke="none">
<path d="M657 1585 c-168 -32 -295 -101 -422 -229 -73 -73 -100 -109 -138
-183 -85 -164 -112 -333 -83 -502 31 -180 97 -305 230 -436 73 -73 109 -100
183 -138 164 -85 333 -112 502 -83 180 31 305 97 436 230 73 73 100 109 138
183 85 164 112 333 83 502 -31 180 -97 305 -230 436 -73 73 -109 100 -183 138
-162 84 -350 113 -516 82z m348 -85 c266 -84 458 -295 511 -560 78 -390 -183
-778 -576 -856 -390 -78 -778 183 -856 576 -50 254 47 533 244 696 81 67 222
137 317 158 98 22 267 15 360 -14z"/>
<path d="M310 1050 c0 -39 1 -40 35 -40 l35 0 -2 -207 -3 -208 -32 -3 c-30 -3
-33 -6 -33 -38 l0 -34 115 0 115 0 0 34 c0 33 -2 35 -37 38 l-38 3 -3 88 -3
87 116 0 115 0 0 40 0 40 -115 0 -115 0 0 80 0 80 110 0 110 0 0 -45 0 -45 40
0 40 0 0 85 0 85 -225 0 -225 0 0 -40z"/>
<path d="M830 1051 c0 -40 1 -41 35 -41 l35 0 -2 -207 -3 -208 -32 -3 c-30 -3
-33 -6 -33 -38 l0 -34 110 0 110 0 0 35 c0 33 -2 35 -35 35 l-35 0 0 60 0 60
110 0 c163 0 226 34 256 137 25 86 -11 174 -88 215 -40 21 -57 23 -235 26
l-193 4 0 -41z m375 -55 c57 -24 81 -96 51 -154 -23 -45 -56 -56 -169 -56
l-102 -1 -3 113 -3 112 96 0 c60 0 108 -5 130 -14z"/>
</g>
</svg>
